<svg width="102" height="102" viewBox="0 0 102 102" fill="none" xmlns="http://www.w3.org/2000/svg">
<g id="Icon">
<circle id="Ellipse 534" cx="51" cy="51" r="48" stroke="#50BE7E" stroke-width="6"/>
<circle id="Ellipse 535" cx="51" cy="51" r="39" fill="#50BE7E"/>
<path id="Vector" d="M48.005 59.9982C47.4904 59.9982 46.9988 59.7954 46.6359 59.4317L39.5509 52.3266C38.8078 51.58 38.8174 50.3826 39.5739 49.6475C40.3305 48.9161 41.5458 48.9237 42.2889 49.6702L47.9493 55.3467L59.6598 42.62C60.376 41.8451 61.5895 41.7902 62.3709 42.4912C63.1562 43.1942 63.2138 44.3916 62.5014 45.1684L49.4258 59.3786C49.0707 59.765 48.5714 59.9886 48.0434 60C48.03 59.9982 48.0184 59.9982 48.005 59.9982Z" fill="white"/>
</g>
</svg>
